# xmcd CD database file
#
# Track frame offsets:
#	150
#	22282
#	43195
#	59802
#	78402
#	95677
#	115000
#	135140
#	154180
#	171555
#	187650
#	207107
#
# Disc length: 3044 seconds
#
# Revision: 5
# Processed by: cddbd v1.5.2PL0 Copyright (c) Steve Scherf et al.
# Submitted via: jetAudio 7
#
DISCID=a30be20c
DTITLE=김민종 - 왜
DYEAR=1900
DGENRE=blues
TTITLE0=아름다운 아픔
TTITLE1=왜
TTITLE2=그대 하나만
TTITLE3=용서
TTITLE4=야우 (野雨)
TTITLE5=눈물
TTITLE6=너만은 아니길
TTITLE7=나를 보내야
TTITLE8=넌 모를거야
TTITLE9=방황
TTITLE10=고백
TTITLE11=다시는
EXTD=
EXTT0=
EXTT1=
EXTT2=
EXTT3=
EXTT4=
EXTT5=
EXTT6=
EXTT7=
EXTT8=
EXTT9=
EXTT10=
EXTT11=
PLAYORDER=
